# xmcd
#
# Track frame offsets:
#	150
#	19832
#	32711
#	53197
#	69533
#	83375
#	100724
#	114103
#	130695
#	142589
#	156604
#	172853
#	191731
#	208852
#
# Disc length: 2937 seconds
#
# Revision: 1
# Processed by: cddbd v1.5.2PL0 Copyright (c) Steve Scherf et al.
# Submitted via: audiograbber 1.83.01
#
DISCID=af0b770e
DTITLE=Gheorghe Zamfir - Gheorghe Zamfir And Friends CD1
DYEAR=2007
DGENRE=Easy Listening
TTITLE0=Gheorghe Zamfir and James Last - Der einsame Hirte
TTITLE1=Pepe Solera - Greensleeves
TTITLE2=Daniela de Santos - Pandyssee Of Love
TTITLE3=Edward Simoni - New York, New York
TTITLE4=Ulrich Herkenhoff - Music From Heaven
TTITLE5=Gheorghe Zamfir - Träumerei [Kindszenen, Op.15]
TTITLE6=Pepe Solera - Pepe's Traum
TTITLE7=Daniela de Santos - El Condor Pasa
TTITLE8=Ulrich Herkenhoff - Candle In The Wind
TTITLE9=Pepe Solera - The Sound Of Silence
TTITLE10=Edward Simoni - Schwarze Augen
TTITLE11=Daniela de Santos - All Of You
TTITLE12=Gheorghe Zamfir - Chariots Of Fire
TTITLE13=Pepe Solera - Yesterday
EXTD=
EXTT0=
EXTT1=
EXTT2=
EXTT3=
EXTT4=
EXTT5=
EXTT6=
EXTT7=
EXTT8=
EXTT9=
EXTT10=
EXTT11=
EXTT12=
EXTT13=
PLAYORDER=
